<svg aria-hidden="true" style="position: absolute; width: 0; height: 0; overflow: hidden;" version="1.1" xmlns="http://www.w3.org/2000/svg" xmlns:xlink="http://www.w3.org/1999/xlink">
<defs>
<symbol id="icon-Vectorclose" viewBox="0 0 32 32">
  <path d="M18.16 16.010l12.639-12.641c0.224-0.264 0.361-0.609 0.361-0.985 0-0.843-0.683-1.526-1.526-1.526-0.377 0-0.721 0.136-0.987 0.362l0.002-0.002-12.639 12.641-12.641-12.655c-0.281-0.308-0.685-0.501-1.133-0.501-0.846 0-1.532 0.686-1.532 1.532 0 0.448 0.192 0.851 0.499 1.131l0.001 0.001 12.657 12.641-12.657 12.641c-0.332 0.282-0.54 0.699-0.54 1.165 0 0.843 0.683 1.526 1.526 1.526 0.466 0 0.883-0.209 1.163-0.538l0.002-0.002 12.657-12.641 12.641 12.641c0.264 0.224 0.609 0.361 0.985 0.361 0.843 0 1.526-0.683 1.526-1.526 0-0.377-0.136-0.721-0.362-0.987l0.002 0.002-12.641-12.641z"></path>
</symbol>
</defs>
</svg>
